<?xml version="1.0" encoding="utf-8"?>
<!-- Generator: Adobe Illustrator 25.3.1, SVG Export Plug-In . SVG Version: 6.00 Build 0)  -->
<svg version="1.1" id="Layer_1" xmlns="http://www.w3.org/2000/svg" xmlns:xlink="http://www.w3.org/1999/xlink" x="0px" y="0px"
	 viewBox="0 0 1308.7 283.9" style="enable-background:new 0 0 1308.7 283.9;" xml:space="preserve">
<style type="text/css">
	.st0{clip-path:url(#SVGID_2_);fill:#801619;}
	.st1{clip-path:url(#SVGID_2_);}
	.st2{clip-path:url(#SVGID_4_);fill:#801619;}
</style>
<g>
	<g>
		<defs>
			<rect id="SVGID_1_" x="5.57" y="8" width="1297.56" height="267.9"/>
		</defs>
		<clipPath id="SVGID_2_">
			<use xlink:href="#SVGID_1_"  style="overflow:visible;"/>
		</clipPath>
		<polygon class="st0" points="241.73,15.49 148.57,172.54 53.95,15.49 5.57,15.49 5.57,268.28 60.44,268.28 60.44,119.82 
			134.48,241.53 160.86,241.53 235.24,116.58 235.6,268.28 290.47,268.28 289.75,15.49 		"/>
		<g class="st1">
			<defs>
				<rect id="SVGID_3_" x="5.57" y="8" width="1297.56" height="267.9"/>
			</defs>
			<clipPath id="SVGID_4_">
				<use xlink:href="#SVGID_3_"  style="overflow:visible;"/>
			</clipPath>
			<path class="st2" d="M375.52,264.44c-16.15-4.25-31.38-11.43-44.93-21.2l19.85-44.08c11.77,8.4,24.82,14.84,38.64,19.08
				c14.45,4.75,29.56,7.2,44.77,7.25c12.72,0.86,25.44-1.7,36.83-7.43c7.31-3.84,11.9-11.41,11.91-19.67
				c0.11-5.82-2.49-11.36-7.03-15c-5.36-4.3-11.49-7.54-18.06-9.54c-7.35-2.42-17.29-5.07-29.69-7.95
				c-16.04-3.63-31.84-8.22-47.33-13.74c-12.2-4.47-23.06-11.96-31.57-21.77c-9.24-11.39-13.94-25.8-13.18-40.46
				c-0.15-14.19,4.01-28.1,11.91-39.88c8.98-12.74,21.46-22.6,35.94-28.37c18.64-7.47,38.61-11.04,58.68-10.48
				c15.95-0.02,31.84,1.93,47.31,5.79c14.27,3.39,27.92,9,40.44,16.63l-18.05,44.39c-21.19-12.62-45.31-19.46-69.97-19.86
				c-12.6-0.9-25.2,1.86-36.27,7.95c-7.34,4.42-11.81,12.38-11.77,20.94c-0.02,8.66,5.4,16.4,13.55,19.34
				c13.33,5.54,27.18,9.71,41.35,12.45c16.04,3.61,31.84,8.19,47.33,13.72c12.15,4.5,23.01,11.94,31.58,21.66
				c9.25,11.24,13.96,25.54,13.2,40.07c0.09,14.11-4.14,27.91-12.12,39.55c-9.12,12.74-21.72,22.59-36.29,28.35
				c-18.69,7.47-38.72,11.04-58.84,10.49c-19.62,0.04-39.15-2.7-58-8.14"/>
			<polygon class="st2" points="770.77,245.15 770.77,268.24 592,268.24 592,15.47 765.34,15.47 765.34,38.58 618.72,38.58 
				618.72,128.49 749.46,128.49 749.46,151.25 618.72,151.25 618.72,245.15 			"/>
			<path class="st2" d="M874.21,253.79c-19.71-10.69-36.08-26.62-47.29-46.04c-22.88-40.96-22.88-90.86,0-131.82
				c11.26-19.47,27.7-35.43,47.49-46.12c37.14-19.27,80.71-21.89,119.89-7.2c15.41,5.92,29.25,15.3,40.46,27.42l-16.97,16.95
				C998.12,47.02,971.04,36.16,943.04,37c-19.06-0.22-37.85,4.51-54.53,13.72c-16,8.77-29.29,21.76-38.44,37.55
				c-18.59,33.2-18.59,73.68,0,106.88c9.15,15.8,22.44,28.79,38.44,37.58c16.68,9.23,35.47,13.96,54.53,13.72
				c28.08,0.9,55.23-10.11,74.74-30.33l16.97,16.97c-11.29,12.14-25.18,21.56-40.63,27.56c-16.62,6.48-34.34,9.72-52.18,9.54
				c-23.63,0.36-46.95-5.36-67.73-16.62"/>
			<path class="st2" d="M1289.51,159.36c9.35,11.7,14.16,26.38,13.55,41.35c0.96,19.66-8.08,38.48-24.03,50.03
				c-21.26,13.08-46.07,19.2-70.98,17.49h-116.26V15.37h109.06c23.09-1.39,46.03,4.55,65.54,16.97
				c15.41,11.03,24.18,29.11,23.33,48.04c0.39,12.64-3.22,25.08-10.31,35.56c-7.08,9.93-16.95,17.53-28.35,21.83
				c14.88,2.63,28.43,10.21,38.47,21.5 M1118.65,37.49v91.71h80.56c16.61,1.02,33.12-3.07,47.33-11.74
				c18.85-14.79,22.14-42.06,7.34-60.91c-2.15-2.73-4.61-5.2-7.34-7.34c-14.2-8.67-30.72-12.76-47.33-11.72H1118.65z
				 M1259.12,234.69c11.75-8.1,18.34-21.8,17.32-36.04c0-31.55-22.87-47.33-68.6-47.33h-89.18v94.99h89.06
				c17.85,1.16,35.66-2.85,51.28-11.56"/>
		</g>
	</g>
</g>
</svg>
