<?xml version="1.0" encoding="UTF-8"?>
<!DOCTYPE svg PUBLIC "-//W3C//DTD SVG 1.1//EN" "http://www.w3.org/Graphics/SVG/1.1/DTD/svg11.dtd">
<!-- Creator: CorelDRAW 2018 -->
<svg xmlns="http://www.w3.org/2000/svg" xml:space="preserve" width="1058.33mm" height="705.555mm" version="1.1" style="shape-rendering:geometricPrecision; text-rendering:geometricPrecision; image-rendering:optimizeQuality; fill-rule:evenodd; clip-rule:evenodd"
viewBox="0 0 105833.32 70555.54"
 xmlns:xlink="http://www.w3.org/1999/xlink">
 <defs>
  <style type="text/css">
   <![CDATA[
    .fil0 {fill:#E31E24}
    .fil1 {fill:#00A0E3}
    .fil2 {fill:#E31E24;fill-rule:nonzero}
   ]]>
  </style>
 </defs>
 <g id="Layer_x0020_1">
  <metadata id="CorelCorpID_0Corel-Layer"/>
  <g id="_636281624">
   <polygon class="fil0" points="105833.31,42289.24 91507.49,42289.24 91507.49,22165.29 97513.34,22186.11 97513.34,37367.7 105833.31,37367.7 "/>
   <path class="fil0" d="M81810.43 22144.36l-3899.8 0 -5234.26 20228.31 6068.5 0 750.66 -3628.55 4588.01 0 750.65 3628.55 6068.51 0 -5234.26 -20249.13 -3858.01 0 0 20.82zm0 6172.7l-1480.66 6423.02 2877.89 0 -1397.23 -6423.02 0 0z"/>
   <path class="fil0" d="M60018.03 32988.33l0 -5818.23 3420.07 0c1835.13,0 3315.79,1292.99 3315.79,2898.71 0,1605.71 -1480.66,2898.71 -3315.79,2898.71l-3420.07 20.81 0 0zm12116.16 -2815.28c0,-5130.03 -4316.76,-8007.76 -7924.5,-8007.76l-10155.77 0 0 20123.95 6005.9 0 -20.85 -4838.12 4087.34 0 2085.4 4817.31 5964.11 0c0,0 -2565.01,-5422.09 -3023.76,-6339.6 1021.9,-604.78 2961.31,-2877.89 2982.13,-5755.78l0 0z"/>
   <path class="fil0" d="M24086.2 34239.69l4525.36 2147.9c-2064.59,3586.91 -5943.41,6026.71 -10385.22,6026.71 -6610.73,0 -11970.13,-5359.48 -11970.13,-11970.16 0,-6610.53 5359.4,-11970.01 11970.13,-11970.01 4337.57,0 8132.97,2314.74 10239.23,5776.49l-4400.18 2314.73c-1251.21,-1876.84 -3399.26,-3128.04 -5839.05,-3128.04 -3878.83,0 -7006.95,3148.98 -7006.95,7006.83 0,3858 3148.94,7006.98 7006.95,7006.98 2460.77,20.82 4608.66,-1292.99 5859.86,-3211.43l0 0z"/>
   <path class="fil1" d="M16099.26 30465.11c0,-1167.93 959.3,-2127.07 2127.08,-2127.07 1167.77,0 2127.07,959.14 2127.07,2127.07 0,1167.78 -959.3,2127.08 -2127.07,2127.08 -1167.78,0 -2127.08,-959.3 -2127.08,-2127.08l0 0z"/>
   <path class="fil1" d="M33324.51 26961.62l-2481.59 -1042.72 396.14 -1167.78 1522.41 417.12c-792.45,-2189.68 -2064.58,-4150.03 -3711.97,-5776.56l-2648.4 437.94 -271.25 -1209.57 1543.27 -458.76c-1814.36,-1397.23 -3962.25,-2418.98 -6318.78,-2898.7l-1960.23 1814.35 -938.48 -834.24 1063.54 -1230.39 0 0c-2377.35,-208.48 -4587.85,125.22 -6694.03,917.67l-729.88 2544.15 -1209.49 -271.08 250.19 -1501.6c-1939.41,1001.09 -3628.55,2377.47 -5004.89,4087.42l667.28 2585.87 -1167.78 375.45 -563.07 -1459.84c-1188.68,1918.59 -2001.98,4129.09 -2252.26,6527.26l1981.17 1835.17 -771.56 959.29 -1272.13 -917.66c41.71,2377.35 625.64,4650.45 1647.42,6673.29l2669.34 500.54 -146 1230.39 -1564 -104.4c1355.44,2043.81 3148.9,3732.95 5317.73,4921.54l2481.59 -1230.38 604.74 1063.53 -1418.05 959.3c1418.05,583.97 2940.34,959.3 4567.04,1105.33 813.26,62.57 1626.53,62.57 2418.98,0l1543.26 -2314.74 1063.54 604.63 -750.82 1459.84c2252.29,-437.98 4358.55,-1355.48 6172.75,-2669.25l83.42 -2794.47 1230.39 -41.63 146.03 1626.53c1751.75,-1647.51 3128.01,-3691.16 3983.07,-6026.72l-1480.66 -2460.77 1001.05 -709.02 1042.72 1272.02c145.91,-667.24 250.15,-1376.26 312.76,-2064.47 145.99,-1668.32 20.81,-3315.83 -333.7,-4858.94l-20.81 125.06 0 0zm-12846.04 -13075.29l1167.94 -1376.42 1334.62 1292.99 -542.18 500.39c2502.41,646.58 4733.73,1855.99 6631.5,3482.68l1793.38 -521.36 417.12 1793.37 -750.81 125.18c1668.32,1814.23 2940.46,4003.92 3670.34,6423.02l1793.38 500.38 -604.67 1751.75 -709.14 -291.91c250.27,1418.05 333.69,2898.71 187.78,4400.19 -104.36,1084.35 -312.84,2168.7 -604.78,3190.61l1084.35 1355.44 -1522.29 1063.54 -271.09 -458.75c-1042.72,2419.14 -2627.58,4546.21 -4629.6,6214.53l166.85 1772.57 -1855.99 62.6 20.82 -604.82c-2001.86,1292.87 -4316.76,2168.75 -6777.53,2502.44l-792.45 1605.68 -1605.72 -917.51 354.52 -521.32c-542.18,0 -1105.17,-20.82 -1668.33,-62.57 -2022.83,-187.66 -3941.35,-709.06 -5672.24,-1543.14l-1480.58 980.07 -917.58 -1605.67 604.78 -333.74c-2252.25,-1418.01 -4129.05,-3357.42 -5463.76,-5630.53l-1855.99 -125.06 229.46 -1835.17 688.17 125.06c-980.16,-2231.31 -1459.84,-4692.09 -1376.38,-7257.1l-1522.37 -1084.35 1167.82 -1439.03 542.21 500.55c396.23,-2565.02 1376.38,-4900.69 2794.43,-6923.53l-688.17 -1730.81 1751.71 -563.11 187.71 709.03c1564.04,-1751.75 3482.55,-3148.98 5630.53,-4108.12l312.76 -1876.96 1793.46 417.12 -208.53 729.84c2001.9,-625.48 4170.77,-875.76 6402.09,-667.24 250.27,-83.42 542.18,-62.6 792.45,-20.81l0 0z"/>
   <path class="fil0" d="M32462.11 31459.3l425.3 518.53c13.08,-116.88 24.88,-234.08 35.57,-351.28 111.97,-1282.98 56.86,-2565.97 -160.07,-3823.67 -628.87,1271.9 -1001.93,2690.94 -1055.13,4190.7l754.33 -534.28z"/>
   <path class="fil0" d="M42021.15 37534.55c-2856.92,0 -5171.66,-2335.72 -5171.66,-5171.82 0,-2856.91 2314.74,-5171.65 5171.66,-5171.65 2856.92,0 5171.82,2314.74 5171.82,5171.65 0,2857.08 -2314.9,5171.82 -5171.82,5171.82zm0 -15494.43c-2805.43,0 -5351.15,1125.7 -7213.35,2947.36l2166.91 604.5 -1130.65 3275.15 -231.41 -95.5c110.7,1106.28 114.49,2200.77 10.68,3268.41 -95.1,989.09 -271.92,1978.21 -525.86,2944.85l1348.98 1686.03 -2685.72 1876.24c1884.42,2511.14 4885.37,4138.23 8260.42,4138.23 5693.18,0 10322.66,-4629.48 10322.66,-10322.66 0,-5693.02 -4629.48,-10322.61 -10322.66,-10322.61z"/>
   <polygon class="fil2" points="-0,57874.83 1398.59,57874.83 1398.59,51248.56 -0,51248.56 "/>
   <path class="fil2" d="M4949.86 53923.43c-441.89,0 -745,184.28 -909.53,552.91 -85.34,194.8 -127.97,443.4 -127.97,746.23l0 2652.26 -1298.02 0 0 -4890.99 1256.91 0 0 714.8c167.48,-251.78 325.96,-433.15 475.26,-544.05 268.1,-197.75 607.89,-296.69 1019.27,-296.69 514.86,0 936.13,132.56 1263.73,398.02 327.43,265.03 491.33,704.96 491.33,1319.27l0 3299.64 -1334.59 0 0 -2980.41c0,-257.89 -35.05,-455.69 -105.16,-593.38 -127.96,-251.79 -371.78,-377.61 -731.23,-377.61z"/>
   <path class="fil2" d="M10667.48 53923.43c-441.8,0 -744.99,184.28 -909.53,552.91 -85.34,194.8 -127.93,443.4 -127.93,746.23l0 2652.26 -1298.02 0 0 -4890.99 1256.87 0 0 714.8c167.52,-251.78 326,-433.15 475.34,-544.05 268.06,-197.75 607.82,-296.69 1019.23,-296.69 514.83,0 936.13,132.56 1263.73,398.02 327.47,265.03 491.29,704.96 491.29,1319.27l0 3299.64 -1334.55 0 0 -2980.41c0,-257.89 -35.09,-455.69 -105.11,-593.38 -127.97,-251.79 -371.82,-377.61 -731.32,-377.61z"/>
   <path class="fil2" d="M16275.52 53900.9c-380.95,0 -674.13,132.56 -879.82,397.86 -205.65,265.07 -308.5,643.47 -308.5,1135 0,491.69 102.85,870.69 308.5,1137.43 205.69,266.66 498.87,400.05 879.82,400.05 380.83,0 673.29,-133.39 877.43,-400.05 204.13,-266.74 306.26,-645.74 306.26,-1137.43 0,-491.53 -102.13,-869.93 -306.26,-1135 -204.14,-265.3 -496.6,-397.86 -877.43,-397.86zm1919.59 -305.7c420.47,518.61 630.67,1131.21 630.67,1838.56 0,719.27 -210.2,1334.39 -630.67,1845.34 -420.51,511.03 -1058.91,766.53 -1915.08,766.53 -856.18,0 -1494.58,-255.5 -1915.09,-766.53 -420.39,-510.95 -630.63,-1126.07 -630.63,-1845.34 0,-707.35 210.24,-1319.95 630.63,-1838.56 420.51,-518.53 1058.91,-777.61 1915.09,-777.61 856.17,0 1494.57,259.08 1915.08,777.61z"/>
   <polygon class="fil2" points="19269.18,52974.86 20731.69,52974.86 21769.19,56589.18 22829.5,52974.86 24228.13,52974.86 22431.96,57874.83 21056.26,57874.83 "/>
   <path class="fil2" d="M26120.28 56948.75c121.83,98.86 271.09,148.39 447.95,148.39 280.22,0 538.51,-80.87 774.7,-242.78 236.08,-161.78 358.74,-456.92 367.87,-885.56l0 -476.5c-82.3,50.93 -165.29,92.28 -249.15,123.54 -83.82,31.63 -198.75,60.78 -345.06,87.77l-292.47 53.88c-274.19,47.97 -470.71,106.35 -589.59,175.26 -201.06,116.92 -301.63,298.4 -301.63,544.01 0,218.77 62.33,376.05 187.38,471.99zm-968.99 -3443.39c344.39,-431.6 935.38,-647.46 1773.41,-647.46 545.4,0 1029.76,106.4 1453.34,319.22 423.46,212.83 635.33,614.4 635.33,1204.79l0 2247.62c0,155.92 2.95,344.67 9.13,566.55 9.13,167.8 35.05,281.61 77.8,341.55 42.63,60.09 106.52,109.46 191.89,148.42l0 188.78 -1416.77 0c-39.68,-98.89 -67.11,-191.73 -82.31,-278.66 -15.35,-87.1 -27.43,-186.03 -36.57,-296.69 -179.8,191.73 -387.01,355.03 -621.69,489.97 -280.34,158.8 -597.17,238.15 -950.56,238.15 -451.02,0 -823.52,-126.61 -1117.54,-379.95 -294.05,-253.1 -441.04,-611.96 -441.04,-1076.46 0,-602.39 236.07,-1038.49 708.46,-1308.23 258.85,-146.71 639.8,-251.66 1142.58,-314.71l443.28 -53.83c240.74,-29.95 412.93,-67.4 516.58,-112.38 185.71,-78 278.7,-199.39 278.7,-364.12 0,-200.75 -70.74,-339.64 -212.43,-415.85 -141.64,-76.52 -349.73,-114.61 -623.92,-114.61 -307.78,0 -525.55,74.77 -653.6,224.75 -91.44,110.75 -152.33,260.69 -182.72,449.51l-1256.98 0c27.43,-428.69 149.26,-780.65 365.63,-1056.36z"/>
   <path class="fil2" d="M32450.43 56962.23l0 957.51 -616.99 22.49c-615.63,20.97 -1036.1,-83.83 -1261.49,-314.68 -146.31,-146.71 -219.45,-373.09 -219.45,-678.8l0 -3016.46 -694.67 0 0 -912.44 694.67 0 0 -1366.69 1288.89 0 0 1366.69 809.04 0 0 912.44 -809.04 0 0 2589.49c0,200.63 25.88,325.8 77.68,375.33 51.76,49.41 210.32,74.13 475.34,74.13 39.52,0 81.47,-0.83 125.78,-2.07 44.02,-1.55 87.49,-3.99 130.24,-6.94z"/>
   <path class="fil2" d="M34625.91 52974.86l0 4899.97 -1320.82 0 0 -4899.97 1320.82 0zm0 -1766.7l0 1182.34 -1320.82 0 0 -1182.34 1320.82 0z"/>
   <polygon class="fil2" points="35398.38,52974.86 36860.9,52974.86 37898.4,56589.18 38958.7,52974.86 40357.33,52974.86 38561.16,57874.83 37185.42,57874.83 "/>
   <path class="fil2" d="M44068.47 54934.81c-21.25,-338.64 -125.61,-595.65 -313,-770.79 -187.38,-175.55 -419.79,-263.12 -697.06,-263.12 -301.63,0 -535.44,92.88 -701.57,278.71 -166.01,185.83 -270.41,437.66 -313.04,755.2l2024.67 0zm1288.89 1501.48c-33.46,290.62 -187.35,586.08 -461.55,885.56 -426.69,476.62 -1023.86,714.77 -1791.7,714.77 -633.78,0 -1192.82,-200.75 -1677.34,-602.4 -484.47,-401.64 -726.73,-1054.8 -726.73,-1959.94 0,-848 218.61,-1498.53 655.99,-1950.94 437.1,-452.53 1004.6,-678.92 1702.38,-678.92 414.41,0 787.66,76.53 1119.81,229.34 332.14,152.89 606.3,394.03 822.67,723.78 195,290.63 321.46,627.67 379.44,1011.46 33.46,224.67 47.09,548.4 41.07,970.98l-3409.54 0c18.3,491.57 175.18,836.23 470.72,1033.99 179.8,122.82 396.02,184.31 648.97,184.31 268.13,0 486.02,-74.85 653.59,-224.83 91.44,-80.87 172.07,-193.33 242.26,-337.16l1329.96 0z"/>
   <path class="fil2" d="M52213.13 55370.91l-840.98 -2607.36 -868.42 2607.36 1709.4 0zm393.03 1141.86l-2481.7 0 -466.21 1362.06 -1471.65 0 2404.07 -6626.27 1590.52 0 2385.76 6626.27 -1526.64 0 -434.15 -1362.06z"/>
   <path class="fil2" d="M56655.62 52974.86l0 4899.97 -1320.82 0 0 -4899.97 1320.82 0zm0 -1766.7l0 1182.34 -1320.82 0 0 -1182.34 1320.82 0z"/>
   <path class="fil2" d="M60421.79 54157.12c-524.03,0 -875.87,167.96 -1055.8,503.45 -100.45,188.82 -150.82,479.49 -150.82,872.13l0 2342.13 -1311.69 0 0 -4899.97 1243.18 0 0 854.18c201.03,-326.63 376.33,-550.03 525.59,-669.94 243.77,-200.75 560.6,-301.2 950.69,-301.2 24.36,0 44.9,0.88 61.77,2.43 16.74,1.44 54.03,3.67 111.85,6.58l0 1312.7c-82.3,-8.97 -155.32,-15.04 -219.32,-17.99 -64.01,-2.99 -115.93,-4.5 -155.45,-4.5z"/>
   <path class="fil2" d="M66710.7 56917.41c332.14,0 601.84,-36.05 809.08,-107.95 393.04,-137.86 589.55,-394.03 589.55,-768.8 0,-218.61 -97.62,-388.13 -292.46,-507.96 -194.96,-116.8 -501.22,-220.21 -918.78,-310.13l-712.93 -157.36c-700.9,-155.76 -1185.41,-325.28 -1453.39,-508 -454.12,-305.7 -681.03,-783.76 -681.03,-1433.92 0,-593.38 219.33,-1086.39 658.1,-1479.14 438.78,-392.64 1083.24,-588.88 1933.35,-588.88 710.03,0 1315.53,185.15 1816.75,555.26 501.22,369.98 764.02,907.38 788.38,1611.62l-1352.77 0c-24.48,-398.54 -201.18,-681.71 -530.25,-849.72 -219.29,-110.82 -491.93,-166.29 -818.05,-166.29 -362.65,0 -652.04,71.9 -868.42,215.82 -216.34,143.76 -324.52,344.5 -324.52,602.39 0,236.64 106.75,413.49 319.9,530.37 137.17,78.09 429.64,169.25 877.54,274.32l1160.88 274.2c509,119.72 892.9,280.22 1151.75,480.97 402.21,311.72 603.39,762.62 603.39,1353.05 0,605.34 -235.36,1108.12 -706.19,1508.41 -470.6,399.93 -1135.72,599.96 -1995.01,599.96 -877.54,0 -1567.59,-196.96 -2070.36,-591.03 -502.78,-394.15 -754.21,-935.77 -754.21,-1625.21l1343.8 0c42.75,302.83 126.33,528.89 251.39,678.87 228.45,272.69 619.97,409.15 1174.51,409.15z"/>
   <path class="fil2" d="M72638.68 53900.9c-380.95,0 -674.01,132.56 -879.94,397.86 -205.41,265.07 -308.37,643.47 -308.37,1135 0,491.69 102.96,870.69 308.37,1137.43 205.93,266.66 498.99,400.05 879.94,400.05 380.95,0 673.42,-133.39 877.55,-400.05 203.97,-266.74 306.26,-645.74 306.26,-1137.43 0,-491.53 -102.29,-869.93 -306.26,-1135 -204.13,-265.3 -496.6,-397.86 -877.55,-397.86zm1919.55 -305.7c420.51,518.61 630.83,1131.21 630.83,1838.56 0,719.27 -210.32,1334.39 -630.83,1845.34 -420.47,511.03 -1058.75,766.53 -1915.04,766.53 -856.18,0 -1494.46,-255.5 -1914.93,-766.53 -420.51,-510.95 -630.82,-1126.07 -630.82,-1845.34 0,-707.35 210.31,-1319.95 630.82,-1838.56 420.47,-518.53 1058.75,-777.61 1914.93,-777.61 856.29,0 1494.57,259.08 1915.04,777.61z"/>
   <polygon class="fil2" points="76148.75,57874.83 77451.32,57874.83 77451.32,51248.56 76148.75,51248.56 "/>
   <path class="fil2" d="M81916.78 57182.56c-12.12,15.03 -42.79,59.93 -91.44,134.9 -48.69,74.85 -106.79,140.85 -173.74,197.84 -203.98,179.72 -401.37,302.71 -591.71,368.55 -190.61,65.83 -413.73,98.93 -669.62,98.93 -737.46,0 -1234.06,-260.88 -1490.07,-782.2 -143.25,-287.68 -214.83,-711.9 -214.83,-1272.34l0 -2953.38 1334.63 0 0 2953.38c0,278.83 33.62,488.47 100.57,629.43 118.76,248.88 351.84,373.06 699.18,373.06 444.99,0 749.7,-176.82 914.15,-530.33 85.26,-191.74 128.01,-445.12 128.01,-759.83l0 -2665.71 1320.83 0 0 4899.97 -1265.96 0 0 -692.27z"/>
   <path class="fil2" d="M86720.29 56962.23l0 957.51 -617.03 22.49c-615.35,20.97 -1035.82,-83.83 -1261.49,-314.68 -146.15,-146.71 -219.29,-373.09 -219.29,-678.8l0 -3016.46 -694.71 0 0 -912.44 694.71 0 0 -1366.69 1288.89 0 0 1366.69 808.92 0 0 912.44 -808.92 0 0 2589.49c0,200.63 25.76,325.8 77.64,375.33 51.92,49.41 210.2,74.13 475.38,74.13 39.52,0 81.43,-0.83 125.62,-2.07 44.3,-1.55 87.49,-3.99 130.28,-6.94z"/>
   <path class="fil2" d="M88895.9 52974.86l0 4899.97 -1320.83 0 0 -4899.97 1320.83 0zm0 -1766.7l0 1182.34 -1320.83 0 0 -1182.34 1320.83 0z"/>
   <path class="fil2" d="M92392.21 53900.9c-380.83,0 -674.01,132.56 -879.82,397.86 -205.53,265.07 -308.49,643.47 -308.49,1135 0,491.69 102.96,870.69 308.49,1137.43 205.81,266.66 498.99,400.05 879.82,400.05 380.95,0 673.58,-133.39 877.55,-400.05 204.13,-266.74 306.26,-645.74 306.26,-1137.43 0,-491.53 -102.13,-869.93 -306.26,-1135 -203.97,-265.3 -496.6,-397.86 -877.55,-397.86zm1919.71 -305.7c420.47,518.61 630.67,1131.21 630.67,1838.56 0,719.27 -210.2,1334.39 -630.67,1845.34 -420.51,511.03 -1058.75,766.53 -1915.08,766.53 -856.3,0 -1494.58,-255.5 -1915.05,-766.53 -420.51,-510.95 -630.7,-1126.07 -630.7,-1845.34 0,-707.35 210.19,-1319.95 630.7,-1838.56 420.47,-518.53 1058.75,-777.61 1915.05,-777.61 856.33,0 1494.57,259.08 1915.08,777.61z"/>
   <path class="fil2" d="M98219.58 53923.43c-441.73,0 -744.92,184.28 -909.49,552.91 -85.26,194.8 -128.01,443.4 -128.01,746.23l0 2652.26 -1297.94 0 0 -4890.99 1256.83 0 0 714.8c167.56,-251.78 326.12,-433.15 475.38,-544.05 267.98,-197.75 607.85,-296.69 1019.23,-296.69 514.86,0 936.05,132.56 1263.57,398.02 327.63,265.03 491.41,704.96 491.41,1319.27l0 3299.64 -1334.51 0 0 -2980.41c0,-257.89 -35.01,-455.69 -105.07,-593.38 -128.01,-251.79 -371.82,-377.61 -731.4,-377.61z"/>
   <path class="fil2" d="M105025.1 53199.65c390.09,245.57 613.92,668.23 671.86,1267.68l-1302.68 0c-18.3,-164.78 -65.56,-295.18 -141.65,-391.12 -143.24,-173.75 -386.89,-260.69 -731.27,-260.69 -283.33,0 -485.19,43.35 -605.47,130.29 -120.43,87.09 -180.64,188.78 -180.64,305.7 0,146.83 64,253.34 192.01,319.18 127.89,69.07 580.46,187.26 1357.44,355.19 517.97,119.75 906.54,301.12 1165.38,543.89 245.37,235.4 373.02,527.5 383.23,875.87l0 96.27c-12.37,462.54 -195.68,842.14 -549.92,1138.67 -367.19,306.93 -934.81,460.54 -1702.66,460.54 -783.03,0 -1361.22,-162.62 -1734.28,-487.58 -373.53,-325.28 -560.08,-739.57 -560.08,-1243.07l1320.87 0c27.44,227.62 86.93,389.57 178.21,485.51 161.67,170.76 460.03,256.14 895.86,256.14 256.05,0 459.47,-37.53 610.12,-112.38 150.98,-74.85 226.35,-187.26 226.35,-337.04 0,-143.96 -61.05,-253.35 -182.88,-328.2 -121.82,-74.85 -574.24,-203.89 -1357.39,-386.61 -563.84,-137.86 -961.42,-310.21 -1192.99,-516.98 -231.41,-203.89 -347.33,-497.43 -347.33,-881.13 0,-452.42 180.65,-841.38 541.5,-1166.62 361.25,-325.13 869.25,-487.71 1524.4,-487.71 621.5,0 1128.94,121.39 1522.01,364.2z"/>
  </g>
 </g>
</svg>
