<svg id="Logo" xmlns="http://www.w3.org/2000/svg" xmlns:xlink="http://www.w3.org/1999/xlink" width="99.55" height="64.018" viewBox="0 0 99.55 64.018">
  <defs>
    <clipPath id="clip-path">
      <path id="Path_2979" data-name="Path 2979" d="M358.4,185.563l-3.056,6.468-3.359,7.111-3.382,7.158-3.353,7.1h9.8l1.935-4.1,3.9-8.257,2.909-6.165,2.646-5.608-2.852-4.011-.089-.125-5.1.434" transform="translate(-345.253 -185.129)" fill="#fff"/>
    </clipPath>
    <clipPath id="clip-path-2">
      <path id="Path_2980" data-name="Path 2980" d="M358.4,185.564,345.253,213.4h9.8l11.385-24.132-2.94-4.136Z" transform="translate(-345.253 -185.129)" fill="#fff"/>
    </clipPath>
    <clipPath id="clip-path-3">
      <path id="Path_2982" data-name="Path 2982" d="M289.262,190.378l-2.143,4.589L302.8,216.814h10.871L294.357,189.9Z" transform="translate(-287.119 -189.904)" fill="#fff"/>
    </clipPath>
    <clipPath id="clip-path-4">
      <path id="Path_3010" data-name="Path 3010" d="M250.724,284.49l-2.554,4.38,2.554,4.38H272l13.94-8.76Z" transform="translate(-248.17 -284.49)" fill="#fff"/>
    </clipPath>
    <clipPath id="clip-path-5">
      <path id="Path_3011" data-name="Path 3011" d="M304.356,293.249l-10.74,22.777,2.94,4.137,5.1-.435L318.3,284.49Z" transform="translate(-293.616 -284.49)" fill="#fff"/>
    </clipPath>
  </defs>
  <path id="Path_2977" data-name="Path 2977" d="M285.943,284.49,272,293.249H250.724l-2.554-4.38,2.554-4.38Z" transform="translate(-248.17 -256.221)" fill="#fff"/>
  <path id="Path_2978" data-name="Path 2978" d="M355.057,213.4h-9.8l13.15-27.834,5.1-.435,2.94,4.137Z" transform="translate(-317.284 -185.129)" fill="#fff"/>
  <path id="Path_2981" data-name="Path 2981" d="M313.674,216.814,294.357,189.9l-5.1.474-2.143,4.59L302.8,216.814Z" transform="translate(-275.898 -188.545)" fill="#fff"/>
  <g id="Group_3397" data-name="Group 3397" transform="translate(0 28.268)">
    <g id="Group_3396" data-name="Group 3396" clip-path="url(#clip-path-4)">
      <path id="Path_2983" data-name="Path 2983" d="M366.909,307.607a6.359,6.359,0,0,0-1.271-1.472,4.52,4.52,0,0,0-5.259-.006c-.693.49-1.253,1.154-1.978,1.6-1.476.9-3.358.74-5.064.431a7.04,7.04,0,0,0-2.56-.174,4.951,4.951,0,0,0-3.042,2.379c-1.987,3.355-.817,5.638-.461,6.37,1.227,2.52,4.095,3.479,5.273,3.881a12.122,12.122,0,0,0,4.272.486,13.8,13.8,0,0,0,3.64-.505,17.636,17.636,0,0,0,3.819-1.883c1.759-1.051,3.659-2.271,4.17-4.354a8.365,8.365,0,0,0-1.539-6.749" transform="translate(-318.248 -299.371)" fill="#fff"/>
      <path id="Path_2984" data-name="Path 2984" d="M296.788,226.14a10.588,10.588,0,0,0-.214,3.264c.389,3.12,1.71,6.266,5.97,6.7,1.434.145,3.9-.623,5.309-.317,2.863.624,6.27,2.97,6.375,5.247.066,1.435-.345,2.18.873,2.967a11.232,11.232,0,0,0,7.932.815,15.209,15.209,0,0,0,5.207-3.729,11.215,11.215,0,0,0,2.448-3.3c.638-1.471,4.843-5.371,4.725-6.967-.153-2.074-4.751-1.9-5.7-3.755a20.052,20.052,0,0,0-4.6-5.556,23.063,23.063,0,0,0-5.018-3.619,29.93,29.93,0,0,0-6.878-2.157c-3.386-.769-7.146-1.5-10.248.434-3.608,2.249-5.413,5.917-6.179,9.976" transform="translate(-282.592 -234.721)" fill="#fff"/>
      <path id="Path_2985" data-name="Path 2985" d="M206.01,229.635a7.083,7.083,0,0,0,.18,2.225,7.673,7.673,0,0,0,5.115,4.842c1.027.286,2.049.325,3.073.675,2.083.712,3.8,2.558,5.239,4.349a12.316,12.316,0,0,0,2.367,2.48,6.377,6.377,0,0,0,4.763.953,6.542,6.542,0,0,0,3.2-1.855,5.479,5.479,0,0,0,1.213-2.236,6.666,6.666,0,0,0-.114-3.261,13.543,13.543,0,0,0-1.712-4.285,21.027,21.027,0,0,0-3.809-4.278,24.294,24.294,0,0,0-3.907-2.986,28.146,28.146,0,0,0-5.071-2.163c-2.467-.863-5.193-1.737-7.186-.713-2.318,1.191-3.219,3.537-3.349,6.254" transform="translate(-218.145 -240.435)" fill="#fff"/>
      <path id="Path_2986" data-name="Path 2986" d="M344.44,274.313a.507.507,0,0,1-.153.434.523.523,0,0,1-.733-.011,6.711,6.711,0,0,0-1.539-1.235.426.426,0,0,1-.22-.46.564.564,0,0,1,.833-.372l.012.007a8.186,8.186,0,0,1,1.658,1.348.506.506,0,0,1,.142.29" transform="translate(-314.816 -275.977)" fill="#fff"/>
      <path id="Path_2987" data-name="Path 2987" d="M352.492,252.914a.51.51,0,0,1-.248.389.522.522,0,0,1-.712-.173,6.647,6.647,0,0,0-1.219-1.545.424.424,0,0,1-.109-.5.565.565,0,0,1,.9-.178l.01.009a8.11,8.11,0,0,1,1.309,1.681.5.5,0,0,1,.073.314" transform="translate(-320.782 -260.356)" fill="#fff"/>
      <path id="Path_2988" data-name="Path 2988" d="M336.163,303.206a1.081,1.081,0,0,1-.161-1.675,2.611,2.611,0,0,1,2.387-.5s2.024.364,2.434,1.745c0,0,.124.8-.689.617s-.594-.491-1.685-.41-1.408.743-2.286.221" transform="translate(-310.452 -296.256)" fill="#fff"/>
      <path id="Path_2989" data-name="Path 2989" d="M248.219,297.53a2.275,2.275,0,0,1,1.226,2.127c-.008,1.579-1.875,2.054-1.875,2.054a3.949,3.949,0,0,1-3.068-.415,1.7,1.7,0,0,1-.572-1.721.793.793,0,0,1,.643-.629c.852-.107.884.378,1.727-.151.926-.581.79-1.574,1.918-1.265" transform="translate(-245.118 -293.778)" fill="#fff"/>
      <path id="Path_2990" data-name="Path 2990" d="M271.722,313.948a.95.95,0,0,1-.244.543,1.952,1.952,0,0,1-1.686.647c-1.226-.095-1.563-1.565-1.563-1.565a2.346,2.346,0,0,1,1.1-2.75,1,1,0,0,1,.295-.106c.322-.063.962-.053.994.482.043.706-.35.6.08,1.4.376.7,1.076.739,1.029,1.348" transform="translate(-262.378 -303.236)" fill="#fff"/>
      <path id="Path_2991" data-name="Path 2991" d="M332.708,286.6a.639.639,0,0,1,.609-.782,1.256,1.256,0,0,1,.736.172.771.771,0,0,1,.314,1.012c-.105.2-.3.284-.678.3a.89.89,0,0,1-.98-.7" transform="translate(-308.346 -285.44)" fill="#fff"/>
      <path id="Path_2992" data-name="Path 2992" d="M290.439,309.15a.609.609,0,0,1-.066-.378.438.438,0,0,1,.451-.383.93.93,0,0,1,.546.128.572.572,0,0,1,.233.751c-.078.151-.222.211-.5.221a.672.672,0,0,1-.661-.339" transform="translate(-278.209 -301.588)" fill="#fff"/>
      <path id="Path_2993" data-name="Path 2993" d="M317.276,293.987a.355.355,0,0,1,.338-.435.7.7,0,0,1,.409.1.429.429,0,0,1,.174.562c-.059.113-.166.158-.377.166a.494.494,0,0,1-.544-.389" transform="translate(-297.363 -290.972)" fill="#fff"/>
      <path id="Path_2994" data-name="Path 2994" d="M243.346,277a.9.9,0,0,1,.862-1.107,1.775,1.775,0,0,1,1.041.244,1.091,1.091,0,0,1,.443,1.432c-.149.289-.422.4-.96.422a1.259,1.259,0,0,1-1.386-.99" transform="translate(-244.726 -278.332)" fill="#fff"/>
      <path id="Path_2995" data-name="Path 2995" d="M286.889,329.024a1.1,1.1,0,0,1,1.048-1.345,2.157,2.157,0,0,1,1.265.3,1.326,1.326,0,0,1,.539,1.741c-.18.351-.513.488-1.166.512a1.531,1.531,0,0,1-1.686-1.2" transform="translate(-275.722 -315.386)" fill="#fff"/>
      <path id="Path_2996" data-name="Path 2996" d="M289.783,226.6c-1.611.668-1.191,6.787-2.229,5.685-2.217-2.355-3.484-.879-3.518.075a10.881,10.881,0,0,0,2.838,8.557,2.025,2.025,0,0,0,.788.531.852.852,0,0,0,1.079-1.157c-.112-.267-.311-.5-.449-.754-.389-.722-.776-1.446-1.14-2.18a1.177,1.177,0,0,1-.088-.571.587.587,0,0,1,.938-.49,2.372,2.372,0,0,1,.656.692,40.892,40.892,0,0,0,3.906,5.207,7.9,7.9,0,0,0,1.187,1.068c.53.392,1.037.385,1.352.062a1.2,1.2,0,0,0,.06-1.514c-.473-.625-1-1.21-1.475-1.835-.516-.681-1-1.384-1.488-2.085a1.67,1.67,0,0,1-.208-.455.748.748,0,0,1,.353-.967.816.816,0,0,1,1.012.29c.269.375.474.8.755,1.161.519.676,1.047,1.35,1.623,1.979a.937.937,0,0,0,1.356.178,1.031,1.031,0,0,0,.042-1.379c-.45-.624-.945-1.218-1.386-1.848-2.894-4.13-1.557-12.076-5.961-10.251" transform="translate(-273.651 -242.876)" fill="#fff"/>
      <path id="Path_2997" data-name="Path 2997" d="M366.434,289.265c1.343-1.1-.868-6.835.451-6.079,2.817,1.613,3.592-.164,3.343-1.087a10.972,10.972,0,0,0-5.245-7.366,2.04,2.04,0,0,0-.91-.281.847.847,0,0,0-.69,1.418c.186.223.444.385.653.591.585.579,1.17,1.159,1.735,1.757a1.18,1.18,0,0,1,.253.521.583.583,0,0,1-.752.74,2.4,2.4,0,0,1-.832-.473,41.3,41.3,0,0,0-5.275-3.854,7.978,7.978,0,0,0-1.451-.679c-.623-.222-1.106-.069-1.311.33a1.2,1.2,0,0,0,.39,1.465c.637.462,1.316.868,1.954,1.329.694.5,1.366,1.036,2.039,1.565a1.673,1.673,0,0,1,.333.375.745.745,0,0,1-.051,1.026.818.818,0,0,1-1.053.014c-.368-.282-.689-.625-1.065-.893-.7-.5-1.4-.99-2.137-1.425a.936.936,0,0,0-1.349.22,1.033,1.033,0,0,0,.367,1.331c.615.467,1.264.893,1.872,1.368,3.989,3.116,5.06,11.1,8.732,8.086" transform="translate(-324.468 -277.249)" fill="#fff"/>
      <path id="Path_2998" data-name="Path 2998" d="M196.038,289.393c1.392-1.042-.557-6.866.727-6.054,2.741,1.736,3.6-.005,3.389-.938a10.955,10.955,0,0,0-4.905-7.59,2.038,2.038,0,0,0-.9-.321.848.848,0,0,0-.753,1.386c.175.231.426.4.625.62.558.6,1.116,1.209,1.653,1.832a1.183,1.183,0,0,1,.229.532.584.584,0,0,1-.785.706,2.4,2.4,0,0,1-.81-.509,41.222,41.222,0,0,0-5.1-4.083,7.953,7.953,0,0,0-1.418-.743c-.612-.25-1.1-.118-1.325.272a1.2,1.2,0,0,0,.323,1.481c.616.49,1.275.926,1.891,1.415.671.532,1.317,1.1,1.966,1.654a1.683,1.683,0,0,1,.316.389.745.745,0,0,1-.1,1.023.818.818,0,0,1-1.053-.033c-.354-.3-.66-.655-1.024-.939-.674-.527-1.354-1.051-2.07-1.518a.936.936,0,0,0-1.358.16,1.033,1.033,0,0,0,.306,1.346c.594.494,1.222.948,1.808,1.449,3.844,3.289,4.552,11.313,8.357,8.464" transform="translate(-203.503 -277.057)" fill="#fff"/>
      <path id="Path_2999" data-name="Path 2999" d="M359.623,335.478c1.611-.667,1.194-6.786,2.232-5.683,2.216,2.356,3.484.881,3.518-.073a10.88,10.88,0,0,0-2.833-8.559,2.029,2.029,0,0,0-.787-.532.853.853,0,0,0-1.08,1.156c.112.267.311.5.449.754.388.723.775,1.446,1.138,2.181a1.171,1.171,0,0,1,.088.572.587.587,0,0,1-.939.49,2.375,2.375,0,0,1-.655-.693,40.878,40.878,0,0,0-3.9-5.209,7.913,7.913,0,0,0-1.186-1.069c-.53-.393-1.037-.385-1.352-.063a1.2,1.2,0,0,0-.061,1.514c.473.626,1,1.21,1.474,1.836.515.681,1,1.385,1.487,2.086a1.664,1.664,0,0,1,.208.455.748.748,0,0,1-.353.967.816.816,0,0,1-1.012-.291c-.268-.376-.473-.8-.754-1.162-.519-.676-1.046-1.351-1.621-1.98a.936.936,0,0,0-1.355-.179,1.031,1.031,0,0,0-.043,1.379c.45.624.944,1.219,1.385,1.849,2.892,4.132,1.551,12.077,5.955,10.255" transform="translate(-322.117 -308.834)" fill="#fff"/>
      <path id="Path_3000" data-name="Path 3000" d="M314.434,307.269c-5.535,3.509-12.343.678-11.391-7.137a3.559,3.559,0,0,0-1.036-3.04,1.444,1.444,0,0,1-.268-1.983,1.643,1.643,0,0,1,2.115-.308,5.905,5.905,0,0,1,2.193,2.161c.268.393.507.8.774,1.2,1.186,1.757,2.593,2.959,4.971,1.869,3.085-1.414,4.534-.64,4.54-.637a2.827,2.827,0,0,1,1.3,3.67,9.568,9.568,0,0,1-3.2,4.206" transform="translate(-286.102 -291.694)" fill="#fff"/>
      <path id="Path_3001" data-name="Path 3001" d="M217,292.043c.185.249.138.658-.334.866a5.341,5.341,0,0,0-2.5-.4l-.333-1.045a.017.017,0,0,1,.017-.022l.775.021a8.3,8.3,0,0,1,2.111.391.517.517,0,0,1,.266.186" transform="translate(-223.721 -289.466)" fill="#fff"/>
      <path id="Path_3002" data-name="Path 3002" d="M214.566,297.724a.51.51,0,0,1,.165.562.531.531,0,0,1-.533.346,6.756,6.756,0,0,0-1.962.151.434.434,0,0,1-.477-.187.553.553,0,0,1,.349-.836l.011,0a8.3,8.3,0,0,1,2.143-.147.52.52,0,0,1,.305.114" transform="translate(-222.187 -293.87)" fill="#fff"/>
      <path id="Path_3003" data-name="Path 3003" d="M244.437,311.786a.513.513,0,0,1-.294-.508.527.527,0,0,1,.436-.46,6.749,6.749,0,0,0,1.872-.6.435.435,0,0,1,.508.071.551.551,0,0,1-.14.893l-.01,0a8.263,8.263,0,0,1-2.047.64.522.522,0,0,1-.324-.04" transform="translate(-245.302 -302.861)" fill="#fff"/>
      <path id="Path_3004" data-name="Path 3004" d="M398.77,273.819a.507.507,0,0,1-.179.424.523.523,0,0,1-.731-.055,6.7,6.7,0,0,0-1.46-1.326.426.426,0,0,1-.191-.473.564.564,0,0,1,.854-.322l.012.008a8.15,8.15,0,0,1,1.572,1.445.509.509,0,0,1,.124.3" transform="translate(-353.55 -275.536)" fill="#fff"/>
      <path id="Path_3005" data-name="Path 3005" d="M222.416,305.836a1.472,1.472,0,0,1,1.368-1.439,2.656,2.656,0,0,1,1.748.371c1.47,1.034.445,2.907-1.536,2.5-.659-.135-1.622-.541-1.58-1.432" transform="translate(-229.834 -298.719)" fill="#fff"/>
      <path id="Path_3006" data-name="Path 3006" d="M260.39,306.682a.505.505,0,0,1-.013.459.522.522,0,0,1-.7.208,6.776,6.776,0,0,0-1.845-.72.43.43,0,0,1-.35-.373.559.559,0,0,1,.68-.6l.014,0a8.284,8.284,0,0,1,1.993.792.512.512,0,0,1,.224.234" transform="translate(-254.795 -299.622)" fill="#fff"/>
      <path id="Path_3007" data-name="Path 3007" d="M346.618,292.377a.506.506,0,0,1-.114.445.523.523,0,0,1-.731.052,6.725,6.725,0,0,0-1.641-1.1.428.428,0,0,1-.259-.44.563.563,0,0,1,.8-.442l.013.006a8.212,8.212,0,0,1,1.769,1.2.51.51,0,0,1,.167.277" transform="translate(-316.299 -289.033)" fill="#fff"/>
      <path id="Path_3008" data-name="Path 3008" d="M258.643,251.474c-1.281,1.173,1.242,6.778-.117,6.095-2.9-1.46-3.578.356-3.278,1.264a10.991,10.991,0,0,0,5.641,7.074,2.041,2.041,0,0,0,.924.232.847.847,0,0,0,.611-1.452c-.2-.212-.464-.361-.684-.556-.616-.547-1.232-1.095-1.829-1.661a1.182,1.182,0,0,1-.281-.507.583.583,0,0,1,.711-.779,2.409,2.409,0,0,1,.857.427,41.438,41.438,0,0,0,5.479,3.566,8.007,8.007,0,0,0,1.486.6c.634.189,1.108.01,1.291-.4a1.2,1.2,0,0,0-.47-1.442c-.662-.427-1.362-.8-2.024-1.223-.721-.464-1.421-.961-2.123-1.453a1.674,1.674,0,0,1-.353-.357.745.745,0,0,1-.005-1.028.818.818,0,0,1,1.051-.071c.383.262.722.587,1.113.835.723.459,1.453.914,2.212,1.308a.936.936,0,0,0,1.335-.292,1.034,1.034,0,0,0-.44-1.309c-.64-.434-1.311-.824-1.944-1.265-4.155-2.9-5.662-10.814-9.164-7.607" transform="translate(-253.162 -260.329)" fill="#fff"/>
      <path id="Path_3009" data-name="Path 3009" d="M311.558,304.545a.9.9,0,0,1,.853-1.1,1.755,1.755,0,0,1,1.031.241,1.08,1.08,0,0,1,.439,1.418c-.147.286-.418.4-.95.417a1.247,1.247,0,0,1-1.373-.98" transform="translate(-293.287 -298.051)" fill="#fff"/>
    </g>
  </g>
  <g id="Group_3399" data-name="Group 3399" transform="translate(13.093 28.268)">
    <g id="Group_3398" data-name="Group 3398" clip-path="url(#clip-path-5)">
      <path id="Path_3119" data-name="Path 3119" d="M0,0,43.093.194l.173,38.7L.173,38.7Z" transform="translate(-15 27.771) rotate(-61.924)" fill="#fff"/>
    </g>
  </g>
  <g id="Group_3407" data-name="Group 3407" transform="translate(46.107 44.288)">
    <g id="Group_3404" data-name="Group 3404" transform="translate(0)">
      <path id="Path_3088" data-name="Path 3088" d="M408.989,343.875c.047.576.551.752,1.033.752.568,0,.863-.246.863-.6,0-.284-.195-.491-.6-.6l-.917-.253c-.7-.191-1.056-.575-1.056-1.166,0-.859.746-1.212,1.569-1.212a1.441,1.441,0,0,1,1.64,1.335h-.777c-.039-.568-.481-.729-.917-.729-.49,0-.746.207-.746.552,0,.292.178.483.6.6l.909.253c.668.184,1.064.529,1.064,1.166,0,.921-.815,1.259-1.67,1.259-1,0-1.709-.461-1.771-1.358Z" transform="translate(-408.212 -340.798)" fill="#fff"/>
      <path id="Path_3089" data-name="Path 3089" d="M423.484,341.068h.831l1.616,4.281h-.816l-.319-.905h-1.826l-.318.905h-.785Zm1.11,2.793-.715-2.033-.714,2.033Z" transform="translate(-417.934 -340.991)" fill="#fff"/>
      <path id="Path_3090" data-name="Path 3090" d="M438.407,341.068h.769v2.624c0,.791.319,1.075.987,1.075s.987-.284.987-1.075v-2.624h.769v2.724c0,1.143-.66,1.634-1.755,1.634s-1.756-.491-1.756-1.634Z" transform="translate(-429.708 -340.991)" fill="#fff"/>
      <path id="Path_3091" data-name="Path 3091" d="M454.867,341.068H456.3a2.141,2.141,0,0,1,0,4.281h-1.438Zm1.438,3.652c1.08,0,1.336-.775,1.336-1.512s-.256-1.511-1.336-1.511h-.668v3.023Z" transform="translate(-441.426 -340.991)" fill="#fff"/>
      <path id="Path_3092" data-name="Path 3092" d="M469.871,344.851h.575v-3.284h-.575v-.5h1.919v.5h-.575v3.284h.575v.5h-1.919Z" transform="translate(-452.108 -340.991)" fill="#fff"/>
    </g>
    <g id="Group_3405" data-name="Group 3405" transform="translate(0.109 7.724)">
      <path id="Path_3093" data-name="Path 3093" d="M408.592,367.948h2.983v.644h-2.215v1.136h1.818v.629h-1.818v1.228h2.215v.645h-2.983Z" transform="translate(-408.592 -367.948)" fill="#fff"/>
      <path id="Path_3094" data-name="Path 3094" d="M422.7,367.948h.917l1.881,3.292v-3.292h.73v4.281h-.917l-1.88-3.292v3.292H422.7Z" transform="translate(-418.638 -367.948)" fill="#fff"/>
      <path id="Path_3095" data-name="Path 3095" d="M439.039,368.6h-1.306v-.652h3.38v.652h-1.306v3.629h-.769Z" transform="translate(-429.338 -367.948)" fill="#fff"/>
      <path id="Path_3096" data-name="Path 3096" d="M452.249,367.948h2.983v.644h-2.214v1.136h1.817v.629h-1.817v1.228h2.214v.645h-2.983Z" transform="translate(-439.672 -367.948)" fill="#fff"/>
      <path id="Path_3097" data-name="Path 3097" d="M466.364,367.948h1.421c1.158,0,1.841.445,1.841,1.389a1.213,1.213,0,0,1-.987,1.243l1.22,1.65h-.909l-1.065-1.5h-.753v1.5h-.769Zm1.405,2.149c.785,0,1.057-.238,1.057-.76s-.272-.76-1.057-.76h-.637V370.1Z" transform="translate(-449.72 -367.948)" fill="#fff"/>
      <path id="Path_3098" data-name="Path 3098" d="M480.62,368.6h-1.305v-.652h3.379v.652h-1.3v3.629h-.769Z" transform="translate(-458.94 -367.948)" fill="#fff"/>
      <path id="Path_3099" data-name="Path 3099" d="M492.671,367.948h.831l1.616,4.281H494.3l-.319-.905h-1.826l-.318.905h-.785Zm1.11,2.793-.715-2.033-.714,2.033Z" transform="translate(-467.298 -367.948)" fill="#fff"/>
      <path id="Path_3100" data-name="Path 3100" d="M507.054,371.731h.575v-3.284h-.575v-.5h1.919v.5H508.4v3.284h.575v.5h-1.919Z" transform="translate(-478.688 -367.948)" fill="#fff"/>
      <path id="Path_3101" data-name="Path 3101" d="M517.172,367.948h.917l1.881,3.292v-3.292h.73v4.281h-.917l-1.88-3.292v3.292h-.731Z" transform="translate(-485.891 -367.948)" fill="#fff"/>
      <path id="Path_3102" data-name="Path 3102" d="M533.958,367.948h.956l1.134,2.2,1.142-2.2h.9v4.281h-.73v-3.292l-1.1,2.11h-.481l-1.1-2.11v3.292h-.73Z" transform="translate(-497.841 -367.948)" fill="#fff"/>
      <path id="Path_3103" data-name="Path 3103" d="M552.846,367.948h2.983v.644h-2.215v1.136h1.818v.629h-1.818v1.228h2.215v.645h-2.983Z" transform="translate(-511.288 -367.948)" fill="#fff"/>
      <path id="Path_3104" data-name="Path 3104" d="M566.957,367.948h.917l1.881,3.292v-3.292h.73v4.281h-.917l-1.88-3.292v3.292h-.731Z" transform="translate(-521.333 -367.948)" fill="#fff"/>
      <path id="Path_3105" data-name="Path 3105" d="M583.293,368.6h-1.306v-.652h3.38v.652h-1.306v3.629h-.769Z" transform="translate(-532.033 -367.948)" fill="#fff"/>
    </g>
    <g id="Group_3406" data-name="Group 3406" transform="translate(0 15.295)">
      <path id="Path_3106" data-name="Path 3106" d="M408.212,394.828h.808l1.165,3.476,1.165-3.476h.785l-1.523,4.282h-.878Z" transform="translate(-408.212 -394.751)" fill="#fff"/>
      <path id="Path_3107" data-name="Path 3107" d="M424.484,394.828h2.983v.644h-2.215v1.136h1.818v.629h-1.818v1.228h2.215v.645h-2.983Z" transform="translate(-419.796 -394.751)" fill="#fff"/>
      <path id="Path_3108" data-name="Path 3108" d="M438.6,394.828h.917l1.881,3.292v-3.292h.73v4.282h-.917l-1.88-3.292v3.292H438.6Z" transform="translate(-429.842 -394.751)" fill="#fff"/>
      <path id="Path_3109" data-name="Path 3109" d="M454.931,395.48h-1.306v-.652h3.38v.652H455.7v3.629h-.769Z" transform="translate(-440.542 -394.751)" fill="#fff"/>
      <path id="Path_3110" data-name="Path 3110" d="M467.6,394.828h.769v2.624c0,.791.319,1.075.987,1.075s.987-.284.987-1.075v-2.624h.769v2.724c0,1.143-.661,1.634-1.756,1.634s-1.756-.491-1.756-1.634Z" transform="translate(-450.494 -394.751)" fill="#fff"/>
      <path id="Path_3111" data-name="Path 3111" d="M484.064,394.828h1.421c1.158,0,1.841.445,1.841,1.389a1.213,1.213,0,0,1-.987,1.243l1.22,1.65h-.909l-1.065-1.5h-.754v1.5h-.769Zm1.405,2.149c.785,0,1.057-.238,1.057-.76s-.272-.76-1.057-.76h-.637v1.519Z" transform="translate(-462.212 -394.751)" fill="#fff"/>
      <path id="Path_3112" data-name="Path 3112" d="M499.47,394.828h2.984v.644H500.24v1.136h1.817v.629H500.24v1.228h2.214v.645H499.47Z" transform="translate(-473.179 -394.751)" fill="#fff"/>
      <path id="Path_3113" data-name="Path 3113" d="M513.066,397.635c.048.576.552.752,1.033.752.568,0,.862-.246.862-.6,0-.284-.194-.491-.6-.6l-.917-.254c-.7-.191-1.057-.575-1.057-1.166,0-.859.746-1.212,1.57-1.212a1.442,1.442,0,0,1,1.64,1.335h-.777c-.039-.568-.482-.729-.917-.729-.49,0-.746.207-.746.553,0,.292.178.483.6.6l.909.253c.668.184,1.065.529,1.065,1.166,0,.921-.816,1.259-1.671,1.259-1,0-1.709-.461-1.771-1.358Z" transform="translate(-482.306 -394.558)" fill="#fff"/>
    </g>
  </g>
  <g id="Group_3408" data-name="Group 3408" transform="translate(46.217 25.436)">
    <path id="Path_3114" data-name="Path 3114" d="M411.592,282.574c.1,1.061,1.075,1.572,2.294,1.572,1.2,0,1.757-.49,1.757-1.081,0-.551-.372-.919-1.323-1.164l-2.335-.592c-2.066-.53-3.121-1.632-3.121-3.347,0-2.224,1.922-3.429,4.588-3.429,2.707,0,4.546,1.225,4.753,3.674h-2.976c-.082-1.02-.909-1.49-1.922-1.49-.992,0-1.508.408-1.508,1.02,0,.51.331.857,1.323,1.123l2.315.592c2,.53,3.141,1.53,3.141,3.347,0,2.347-2,3.531-4.856,3.531-3.121,0-4.981-1.47-5.126-3.755Z" transform="translate(-408.595 -274.533)" fill="#fff"/>
    <path id="Path_3115" data-name="Path 3115" d="M448.832,275.251h8.453v2.408h-5.5v2h4.4v2.367h-4.4v2.2h5.5v2.408h-8.453Z" transform="translate(-437.24 -275.047)" fill="#fff"/>
    <path id="Path_3116" data-name="Path 3116" d="M480.891,275.251h3.08l2.6,8.286,2.624-8.286h2.977l-3.968,11.388h-3.348Z" transform="translate(-460.063 -275.047)" fill="#fff"/>
    <path id="Path_3117" data-name="Path 3117" d="M522.779,275.251h8.453v2.408h-5.5v2h4.4v2.367h-4.4v2.2h5.5v2.408h-8.453Z" transform="translate(-489.883 -275.047)" fill="#fff"/>
    <path id="Path_3118" data-name="Path 3118" d="M557.708,275.251h3.575l3.988,7.592v-7.592h2.811v11.388h-3.575l-3.989-7.592v7.592h-2.811Z" transform="translate(-514.75 -275.047)" fill="#fff"/>
  </g>
</svg>
